<svg xmlns="http://www.w3.org/2000/svg" version="1.1" xmlns:xlink="http://www.w3.org/1999/xlink" xmlns:svgjs="http://svgjs.com/svgjs" width="1000" height="1000"><rect width="1000" height="1000" rx="200" ry="200" fill="#48c75d"></rect><g transform="matrix(16.666666666666668,0,0,16.666666666666668,100,100)"><svg xmlns="http://www.w3.org/2000/svg" version="1.1" xmlns:xlink="http://www.w3.org/1999/xlink" xmlns:svgjs="http://svgjs.com/svgjs" width="48" height="48"><svg xmlns="http://www.w3.org/2000/svg" height="48" width="48"><path d="M7 40q-1.2 0-2.1-.9Q4 38.2 4 37V11q0-1.2.9-2.1Q5.8 8 7 8h34q1.2 0 2.1.9.9.9.9 2.1v26q0 1.2-.9 2.1-.9.9-2.1.9Zm17-15.1L7 13.75V37h34V13.75Zm0-3L40.8 11H7.25ZM7 13.75V11v26Z"></path></svg></svg></g></svg>